<?xml version="1.0" encoding="utf-8"?>
<!-- Generator: Adobe Illustrator 21.0.0, SVG Export Plug-In . SVG Version: 6.00 Build 0)  -->
<svg version="1.1" xmlns="http://www.w3.org/2000/svg" xmlns:xlink="http://www.w3.org/1999/xlink" x="0px" y="0px"
	 viewBox="0 0 786.3 214.2" style="enable-background:new 0 0 786.3 214.2;" xml:space="preserve">
<style type="text/css">
	.st0{fill:#E11F27;}
</style>
<g id="Layer_1">
	<g>
		<path class="st0" d="M261.7,69.3c-8.8,0-13.2,5.6-13.2,13.2v50.4c0,7.4,4.4,13,13.2,13c8.6,0,13-5.6,13-13V82.5
			C274.7,74.9,270.3,69.3,261.7,69.3z"/>
		<path class="st0" d="M0,0v214.2h786.3V0H0z M154.7,177h-24.9c-24.9-3.5-38.4-17.2-39.9-38.4v-10h36.1v5c0,9,5.4,13.6,14.8,13.6
			c10.4,0,13.6-3.6,13.6-10.2c0-17.6-62.2-16.8-62.2-57.8c0-23.4,18.8-42,50.6-42c31.8,0,50,16.6,50,41.6v7.2h-36.2v-4.8
			c0-8-4.2-13.4-13.6-13.4c-7.6,0-11.6,3.6-11.6,10.4c0,17.2,62.6,15.8,62.6,56.6C193.9,155.2,181,173,154.7,177z M317.3,130.3
			c0,25.2-17.9,42.8-44,46.7H250c-26.2-4-44.1-21.5-44.1-46.7V84.7c0-29,23.4-47.4,55.8-47.4c32.2,0,55.6,18.4,55.6,47.4V130.3z
			 M436.7,90.7h-37.2v-8.2c0-9.4-4.8-13.2-13.2-13.2c-8.4,0-13.2,3.8-13.2,13.2v51c0,8.4,6,12.4,13.2,12.4c8.4,0,13-4.4,13-11.8
			v-9.8h37.2v12c0,22.1-16,37.1-39.4,40.7H374c-26.6-4-43.5-22-43.5-46.9V84.9c0-28.4,22.8-47.6,54.8-47.6c33,0,51.4,17.2,51.4,43
			V90.7z M494.3,174.1h-41.8V40.9h41.8V174.1z M579.5,174.1l-4.2-19.8h-29.6l-5,19.8h-37.2l35.6-133.2h47.8l35.4,133.2H579.5z
			 M725.5,174.1h-93.6V40.9h41.8v99.8h51.8V174.1z"/>
		<polygon class="st0" points="552.1,128.3 569.9,128.3 561.7,85.3 		"/>
	</g>
</g>
<g id="Layer_2">
</g>
</svg>
