<?xml version="1.0" encoding="utf-8"?>
<!-- Generator: Adobe Illustrator 21.0.0, SVG Export Plug-In . SVG Version: 6.00 Build 0)  -->
<svg version="1.1" id="Layer_1" xmlns="http://www.w3.org/2000/svg" xmlns:xlink="http://www.w3.org/1999/xlink" x="0px" y="0px"
	 viewBox="0 0 59.8 60.2" style="enable-background:new 0 0 59.8 60.2;" xml:space="preserve">
<style type="text/css">
	.st0{fill:#F0F0FF;}
</style>
<g>
	<path class="st0" d="M2.2,21.1h9.2v39.1H2.2V21.1z M6.7,0c3.8,0,6.8,3,6.8,6.8c0,3.7-3,6.7-6.8,6.7C3,13.5,0,10.5,0,6.8
		C0,3,3,0,6.7,0"/>
	<path class="st0" d="M23.6,21.1h9.2v5.5c2.4-4.2,7-6.5,12.8-6.5c5.6,0,9.6,2,11.8,5.3c1.9,2.9,2.5,6.2,2.5,11.6v23.3h-9.2V40
		c0-6.7-1.9-11.8-8.5-11.8c-6.4,0-9.4,5.1-9.4,11.8v20.2h-9.2V21.1z"/>
</g>
</svg>
