<svg id="Layer_1" data-name="Layer 1" xmlns="http://www.w3.org/2000/svg" viewBox="0 0 525.97 700"><defs><style>.cls-1{fill:#fff;}</style></defs><title>social-icons</title><path class="cls-1" d="M518.62,262.8c-1.38,11.75-2.4,23.55-4.25,35.21-8.49,54.45-27.18,104.24-63,145.63-36,41.65-80.87,62.83-135.06,61.89-25-.41-47.27-8.08-67.63-22.85C239.92,476.33,231,470.2,222.2,464c-1.14-.79-2.4-1.35-4.19-2.31-2.2,11.39-4.1,22.32-6.41,33.13-8.11,38-16.52,75.8-31.52,111.65-13.41,32-30.93,60.89-57.53,82.92-.94.79-1.9,1.55-2.93,2.28a14,14,0,0,1-2,1c-.79-6.71-1.67-13.09-2.28-19.51-4.69-48.36-2.78-96.57,6.94-143.93,10.84-52.61,24.11-104.63,36.23-156.94q4.44-19.16,8.46-38.4a10.81,10.81,0,0,0-.41-6.27c-15.32-32.34-15.67-65.76-6.68-99.79,5.95-22.41,15.73-42.59,33.68-57.29,22.7-18.66,57.06-15.9,76.74,6.12,8.93,10,11,22.58,11.19,35.56.18,18.07-4,35.47-8.73,52.69-7.85,28.76-16.29,57.35-23.81,86.23a106.72,106.72,0,0,0-3.1,39.07c2.52,21.67,14.7,36.58,34.8,42.44,40.42,11.77,72.73-2.11,98.74-34.68,23-28.76,35.09-62.83,42.24-99,7.56-38.37,8.2-76.77-.26-115.2C409.31,128.86,375.54,94.94,325.8,78.1c-50.56-17.08-99.06-8.05-145,18a194.88,194.88,0,0,0-74.08,73.28C86.53,204.28,78.44,242,82.9,282.72c1.67,15.08,6.91,28.5,14.32,41.3a182.41,182.41,0,0,1,11.16,21.67c8.2,20,2.72,38.6-6.88,56.38-.47.88-2.67,1.44-3.84,1.14-37.81-9.37-64.85-31.9-78.53-70.62-5.54-15.7-8.46-32-9.81-48.62a56.42,56.42,0,0,0-1-5.83V242c.29-1.58.73-3.13.88-4.72,3.6-47.22,19.3-89.48,47.71-126.36C100.32,54.52,156.71,21.54,225,10.7c9.11-1.44,18.31-2.26,27.45-3.34h34.59a43.26,43.26,0,0,0,5,1c43.17,3.19,84.41,13.71,122.17,36.47,57.32,34.59,92.18,85.56,101.43,154.77,1.14,8.61,2,17.28,3,25.92Z"/></svg>