<svg id="Layer_1" data-name="Layer 1" xmlns="http://www.w3.org/2000/svg" viewBox="0 0 700 700"><defs><style>.cls-1{fill:#fff;}</style></defs><title>social-icons</title><path class="cls-1" d="M232.65,162.29c-9.88-4.58-19.33-10.07-29.2-14.66-16.75-7.8-32.59-17.47-49.92-24.06h0c-2.26-2.91-5.68-3.63-8.92-4.68L136.53,114c-1.46-2.23-3.83-3-6.16-3.78h0q-49.82-25-99.65-50.07c-13.81-6.92-19.19-3.64-19.19,11.78q0,220.76.06,441.53c0,3.68-1.05,7.71,1.85,11,3.39,7.95,9.37,13,17.08,16.82,31.85,15.68,63.55,31.66,95.31,47.53,30.53,15.26,61,30.59,91.62,45.73,12.71,6.29,20.69,1.63,21.1-12,.07-2.19,0-4.38,0-6.57q0-217.08,0-434.16c0-3.28,0-6.57,0-9.85C238.63,167.46,237.15,164.38,232.65,162.29ZM150.93,124l.16,0s0,.08,0,.12Zm-19.05-10.12-.11-.13H132l-.14.07ZM14.9,62.83h0v0l-.06,0Z"/><path class="cls-1" d="M435.12,481.14Q382.58,395.74,330,310.35q-32.39-52.62-64.82-105.21c-1.84-3-3.69-7.48-7.37-6.65-5,1.13-2.9,6.39-2.91,9.87-.14,35-.09,70-.08,105.06,0,35.84.16,71.69-.14,107.53-.06,6.74,2.29,10.4,8.26,13.32,27.27,13.34,54.37,27,81.49,40.65q56.06,28.18,112.06,56.49c2.37,1.2,4.69,2,6.81,0,2.79-2.59-.12-4.41-1.27-6.31Q448.64,503.09,435.12,481.14Z"/><path class="cls-1" d="M691.51,209.88c0-2.45.39-5.51-2.36-6.45-3.23-1.11-5,2-6.33,4.13-6,9.73-11.74,19.65-17.57,29.51-1.07,1.58-2.21,3.12-3.2,4.75q-50,81.5-100,163c-20.55,33.4-41.36,66.64-62,100-6.31,10.2-12.38,20.54-18.64,30.77-2.54,4.15-1.87,7.09,2.68,9.17,6.68,3.06,13.29,6.28,19.92,9.44a2.24,2.24,0,0,0,.57.3l14.53,7.66h0l17.72,8.46h0c4.16,2.62,8.32,5.25,13.13,6.57,4.16,2.62,8.32,5.26,13.15,6.57h0c4.13,2.67,8.33,5.19,13.09,6.6h0l21.72,11.21h0l13.14,6.57h0l17.68,8.49h0c14.8,7.54,29,16.41,45,21.49,7.11,2.26,11.95-.57,15.47-6.94,2.4-4.36,2.34-8.87,2.34-13.52q0-197.32,0-394.63C691.51,218.63,691.53,214.25,691.51,209.88Zm-185,343.82h0l-.27.05c0-.1,0-.18,0-.28Zm59.11,29.56h0l-.31.06c-.06-.17-.14-.31-.21-.47C565.29,583,565.48,583.11,565.65,583.26Zm-27-13.61c.23.17.48.3.71.47h0l-.37.07C538.9,570,538.78,569.84,538.67,569.65ZM552,576.28c.17.15.36.26.53.42l-.32.06C552.13,576.58,552,576.44,552,576.28Z"/><path class="cls-1" d="M621.41,276.06q31.14-50.59,62.34-101.15c3-4.84,5.39-9.42-1.49-12.9-14.82-7.49-29.33-15.63-44.76-21.87h0a23.59,23.59,0,0,0-3.29-2.41Q554,97.65,473.74,57.66c-9-4.46-11.73-3.75-16.8,4.47Q393.56,165,330.25,267.85c-2.07,3.36-3,6.48-.81,9.9Q346.18,304.4,363,331c7.36,13.54,15.14,26.81,24.27,39.26h0a36.85,36.85,0,0,0,2,4.41q39.88,64.89,79.8,129.75c5.64,9.19,6.13,9.25,11.9-.13Q551.2,390.17,621.41,276.06Zm11.26-135.64-.33-.2h.36C632.68,140.29,632.68,140.36,632.67,140.42Z"/></svg>