<?xml version="1.0" encoding="utf-8"?>
<!-- Generator: Adobe Illustrator 21.0.0, SVG Export Plug-In . SVG Version: 6.00 Build 0)  -->
<svg version="1.1" id="Layer_1" xmlns="http://www.w3.org/2000/svg" xmlns:xlink="http://www.w3.org/1999/xlink" x="0px" y="0px"
	 viewBox="0 0 73.7 59.9" style="enable-background:new 0 0 73.7 59.9;" xml:space="preserve">
<style type="text/css">
	.st0{fill:#F0F0FF;}
</style>
<path class="st0" d="M73.7,2.6l-13.5,2c-1.7-1.7-3.8-3.1-6.3-3.9C45.8-1.9,37,2.6,34.4,10.8C32.7,16,34,21.5,37.3,25.5
	c-6.9-2.9-11.7-9.6-12.2-17.3c-7.2,2.9-12.4,9.9-12.6,18.1c-0.2,8.8,5.3,16.5,13.2,19.4C16.9,49.3,6.8,47.3,0,41.1
	c9.1,17.1,30.3,23.7,47.5,14.8c15.2-7.8,22.4-25.1,18-41L73.7,2.6z"/>
</svg>
